Coordinates
version=1
nRows=12
nColumns=33
inDegrees=yes

Units are S.I. units (second, meters, Newtons, ...)
Angles are in degrees.

endheader
time	ground_thorax_rot_x	ground_thorax_rot_y	ground_thorax_rot_z	ground_thorax_tx	ground_thorax_ty	ground_thorax_tz	clav_prot_r	clav_elev_r	scapula_abduction_r	scapula_elevation_r	scapula_upward_rot_r	scapula_winging_r	shoulder_elv_r	plane_of_elev_r	axial_rot_r	elbow_flexion_r	pro_sup_r	wrist_flex_r	wrist_dev_r	clav_prot_l	clav_elev_l	scapula_abduction_l	scapula_elevation_l	scapula_upward_rot_l	scapula_winging_l	shoulder_elv_l	plane_of_elev_l	axial_rot_l	elbow_flexion_l	pro_sup_l	wrist_flex_l	wrist_dev_l
     10.80000000	     38.12236506	     16.15423719	     14.10232919	   -137.95977325	    788.95229898	      2.89604229	     -2.26182715	     40.04411442	     45.00000000	     41.93290370	     29.01692625	   -834.67018203	  -2459.56865044	     17.76898620	   -179.99999979	   2167.62851897	   -117.82142780	     15.83659062	     11.69517931	     -2.74229509	    -45.00000000	    -45.00000000	     45.00000000	     14.42448505	   -971.64826350	  -2440.96330570	     13.29474839	    179.99999979	   -713.65596883	   -149.02148006	      9.58091587	    -14.45013010
     10.81000000	     38.32917878	     16.10631440	     13.95899248	   -140.10778534	    790.08518769	      2.87462070	     -2.35098166	     40.28705722	     45.00000000	     42.26960910	     29.30914256	   -834.82374063	  -2459.41155986	     17.81950404	   -179.99999979	   2167.74423329	   -118.23441854	     15.83401493	     11.76080009	     -2.73973677	    -45.00000000	    -45.00000000	     45.00000000	     14.78292828	   -971.44458325	  -2440.85118367	     13.32867089	    179.99999979	   -713.57120329	   -149.55597450	      9.69832602	    -14.40181405
     10.82000000	     38.46603792	     16.03613727	     13.86486369	   -142.27485981	    791.23415479	      2.85366259	     -2.42047473	     40.37787192	     45.00000000	     42.55482844	     29.63200810	   -835.03379199	  -2459.30676321	     17.76413236	   -179.99999979	   2167.69418140	   -118.61549685	     15.92842857	     11.82444299	     -2.81198851	    -45.00000000	    -45.00000000	     45.00000000	     15.19480456	   -971.25770165	  -2440.60877765	     13.29731068	    179.99999979	   -713.52053526	   -150.02896571	      9.83184175	    -14.39539096
     10.83000000	     38.67619335	     15.95814437	     13.75148593	   -144.44661678	    792.39035215	      2.83934810	     -2.51514818	     40.58084942	     45.00000000	     42.87176703	     29.98856645	   -835.22201084	  -2459.13730934	     17.80740622	   -179.99999979	   2167.77563357	   -118.96844547	     15.94848886	     11.88994770	     -2.81977783	    -45.00000000	    -45.00000000	     45.00000000	     15.53065879	   -971.06150033	  -2440.48551209	     13.28137977	    179.99999979	   -713.43859751	   -150.47409568	      9.94935837	    -14.37214761
     10.84000000	     38.81280670	     15.90281764	     13.61520194	   -146.58251373	    793.53797088	      2.84523792	     -2.59928492	     40.65072486	     45.00000000	     43.17972959	     30.32692963	   -835.45385588	  -2458.99496146	     17.73824466	   -179.99999979	   2167.77510779	   -119.29537673	     16.02831823	     11.95669541	     -2.85592991	    -45.00000000	    -45.00000000	     45.00000000	     15.83935872	   -970.95410424	  -2440.27931964	     13.27678111	    179.99999979	   -713.43069297	   -150.88267967	     10.08798626	    -14.40157802
     10.85000000	     39.01563447	     15.87032859	     13.53662098	   -148.67842020	    794.67556866	      2.87262799	     -2.67918425	     40.97194526	     45.00000000	     43.49683439	     30.57100072	   -835.57922387	  -2458.82283759	     17.84543760	   -179.99999979	   2167.92929973	   -119.59299970	     15.99441213	     12.01382476	     -2.83743814	    -45.00000000	    -45.00000000	     45.00000000	     16.20150499	   -970.70892056	  -2440.11128226	     13.34236645	    179.99999979	   -713.30456947	   -151.25742843	     10.18055466	    -14.35710323
     10.86000000	     39.17362940	     15.74248548	     13.30388561	   -150.72078255	    795.80285653	      2.92572858	     -2.75160285	     40.87874459	     45.00000000	     43.77718887	     30.95586173	   -835.82218531	  -2458.69897553	     17.70479300	   -179.99999979	   2167.77630676	   -119.89428763	     16.12104917	     12.05255943	     -2.94300013	    -45.00000000	    -45.00000000	     45.00000000	     16.64753801	   -970.61770355	  -2439.95661219	     13.25542644	    179.99999979	   -713.33975993	   -151.58729798	     10.34102006	    -14.43401582
     10.87000000	     39.39501731	     15.66253122	     13.18259693	   -152.71815892	    796.92454714	      2.99874743	     -2.86353816	     41.30987987	     45.00000000	     44.09530671	     31.28316520	   -835.95639355	  -2458.55583672	     17.83101606	   -179.99999979	   2167.97917475	   -120.18233086	     15.99313790	     12.07030974	     -2.87481413	    -45.00000000	    -45.00000000	     45.00000000	     17.03071347	   -970.29626726	  -2439.83861409	     13.37967083	    179.99999979	   -713.17954746	   -151.90469325	     10.39713581	    -14.35342887
     10.88000000	     39.51441703	     15.60656730	     13.04805655	   -154.68778093	    798.05123585	      3.08393454	     -2.90906631	     41.24713437	     45.00000000	     44.32907976	     31.56137662	   -836.14045636	  -2458.37726974	     17.77292740	   -179.99999979	   2167.91543133	   -120.47314380	     16.12321309	     12.13681732	     -3.00970616	    -45.00000000	    -45.00000000	     45.00000000	     17.41234243	   -970.26874144	  -2439.56044275	     13.29702603	    179.99999979	   -713.16914831	   -152.18121145	     10.57982197	    -14.45682838
     10.89000000	     39.74435369	     15.54508073	     12.94782113	   -156.66107853	    799.19557930	      3.16816553	     -3.00523754	     41.54480740	     45.00000000	     44.65900800	     31.88621560	   -836.29072781	  -2458.21263258	     17.83506038	   -179.99999979	   2168.07756098	   -120.75322136	     16.05462329	     12.16676739	     -2.99753725	    -45.00000000	    -45.00000000	     45.00000000	     17.83346392	   -969.99873599	  -2439.43788748	     13.30567336	    179.99999979	   -713.02644890	   -152.42902792	     10.65573743	    -14.42077266
     10.90000000	     39.85908121	     15.47000611	     12.85820971	   -158.63527359	    800.35732945	      3.24979824	     -3.05857082	     41.59604276	     45.00000000	     44.89832208	     32.14498237	   -836.46790372	  -2458.06304541	     17.80562171	   -179.99999979	   2168.07945114	   -121.04685574	     16.13836401	     12.22717650	     -3.06682353	    -45.00000000	    -45.00000000	     45.00000000	     18.15882607	   -969.90957487	  -2439.17720185	     13.27553057	    179.99999979	   -712.97540219	   -152.66337057	     10.80599427	    -14.49398619
     10.91000000	     39.97498747	     15.31664008	     12.61490678	   -160.60575080	    801.53379270	      3.33167307	     -3.08889215	     41.55922204	     45.00000000	     45.00000000	     32.27509039	   -836.54423428	  -2457.91181206	     17.81930504	   -179.99999979	   2167.98967956	   -121.34958632	     16.24709934	     12.27287909	     -3.11214810	    -45.00000000	    -45.00000000	     45.00000000	     18.56225089	   -969.82452820	  -2439.01257527	     13.28727743	    179.99999979	   -713.00557420	   -152.87728473	     10.94433279	    -14.57577630
